<svg viewBox="0 0 1765 281" fill="none" xmlns="http://www.w3.org/2000/svg">
<path d="M230.3 32.5067C206.521 21.8109 177.49 16.463 143.11 16.463H0.627686V272.302H132.892C170.136 272.302 201.364 266.572 226.575 255.112C249.59 245.562 269.168 229.328 282.919 208.509C295.238 188.837 301.637 166.013 301.35 142.807C301.732 119.696 295.62 96.9677 283.588 77.1996C270.791 57.2406 252.169 41.5789 230.3 32.4112V32.5067ZM184.843 189.887C172.428 201.442 154.666 207.268 131.46 207.268H92.0191V81.5925H136.617C158.963 81.5925 175.771 87.2269 186.944 98.2091C198.308 110.051 204.324 126.094 203.561 142.616C204.42 160.378 197.64 177.568 184.938 189.983L184.843 189.887ZM669.685 161.62C681.336 172.029 687.161 187.309 687.257 207.459C687.639 228.946 676.561 249.096 658.13 260.269C638.935 273.161 611.432 279.655 575.715 279.559C555.183 279.559 534.747 276.981 514.883 271.92C496.07 267.24 478.117 259.696 461.5 249.669V189.028C476.016 199.532 492.25 207.268 509.535 211.852C528.444 217.581 548.117 220.637 567.885 220.733C574.665 221.115 581.541 219.873 587.844 217.295C592.332 215.003 594.528 212.043 594.528 209.082C594.624 205.644 593.287 202.397 590.9 199.914C586.698 196.763 581.827 194.566 576.67 193.707L532.837 183.871C507.721 178.045 489.863 169.928 479.358 159.614C468.662 148.823 462.933 134.021 463.696 118.837C463.506 105.276 468.471 92.0973 477.544 81.9745C488.335 70.5148 501.991 62.2065 516.984 57.7181C536.37 51.6062 556.616 48.7413 576.957 49.1233C595.961 48.9323 614.869 51.1287 633.205 55.7126C648.103 59.246 662.332 64.8804 675.606 72.5202V129.914C663.191 122.752 649.822 117.213 635.975 113.68C620.886 109.669 605.32 107.568 589.754 107.568C566.834 107.568 555.374 111.483 555.374 119.219C555.374 122.752 557.38 125.999 560.627 127.431C566.93 130.105 573.423 132.015 580.108 133.066L616.684 139.655C640.367 143.857 658.13 151.115 669.781 161.62H669.685ZM912.25 203.83C922.945 200.774 933.164 196.381 942.713 190.842V255.589C914.446 272.015 882.168 280.419 849.508 279.75C823.341 280.419 797.27 275.167 773.491 264.28C753.914 255.303 737.489 240.787 726.124 222.547C715.524 204.594 710.081 184.157 710.463 163.339C710.176 142.52 715.906 122.084 726.888 104.512C738.635 86.5584 755.442 72.4247 775.115 63.8299C799.085 53.4207 824.965 48.3593 851.131 49.0278C887.707 49.0278 917.98 56.6676 942.14 72.0427V138.987C932.973 132.779 922.946 128.004 912.345 124.758C900.504 121.033 888.184 119.219 875.77 119.314C853.137 119.314 835.374 123.421 822.577 131.729C804.624 141.756 798.13 164.485 808.157 182.534C811.404 188.359 816.274 193.229 822.004 196.667C834.419 205.071 852.468 209.273 876.056 209.273C888.28 209.273 900.408 207.554 912.059 204.021L912.25 203.83ZM1182.8 63.7344C1134.76 44.2529 1080.99 44.2529 1032.96 63.7344C1013.38 72.3292 996.765 86.3674 984.923 104.13C973.75 121.702 967.925 142.043 968.307 162.861C968.02 183.871 973.846 204.594 984.923 222.452C996.67 240.692 1013.48 255.208 1033.25 264.184C1080.99 284.525 1134.95 284.525 1182.7 264.089C1202.37 255.112 1219.08 240.596 1230.73 222.356C1241.72 204.403 1247.45 183.775 1247.16 162.766C1247.54 141.947 1241.81 121.511 1230.73 103.939C1218.99 86.2719 1202.37 72.2337 1182.89 63.7344H1182.8ZM1144.21 199.341C1134.38 208.605 1121.2 213.475 1107.64 212.615C1094.17 213.284 1080.99 208.509 1071.06 199.341C1061.99 189.887 1057.12 177.186 1057.79 164.007C1057.12 151.019 1061.99 138.414 1071.06 129.15C1080.99 120.078 1094.17 115.494 1107.64 116.163C1121.1 115.399 1134.28 120.078 1144.21 129.15C1153.38 138.414 1158.25 151.019 1157.58 164.007C1158.16 177.09 1153.38 189.887 1144.21 199.341ZM1433.48 53.6117C1445.13 53.3252 1456.68 56.2856 1466.71 62.3975V141.47C1455.82 134.976 1443.22 131.824 1430.52 132.302C1411.03 132.302 1396.04 138.223 1385.54 150.064C1375.13 161.906 1369.88 180.242 1369.88 205.071V272.302H1280.3V58.4821H1367.97V126.381C1372.84 101.552 1380.67 83.216 1391.55 71.3743C1402.25 59.628 1417.43 53.1342 1433.29 53.6117H1433.48ZM1674.7 9.1097V104.416C1660.09 67.3634 1631.44 48.8368 1588.85 48.8368C1569.37 48.5503 1550.17 53.7072 1533.46 63.8299C1517.23 73.9527 1504.15 88.3729 1495.84 105.562C1486.76 124.376 1482.28 145.003 1482.94 165.822C1482.56 185.972 1486.76 205.835 1495.17 224.171C1502.81 240.692 1515.03 254.826 1530.31 264.757C1546.16 274.785 1564.6 279.941 1583.31 279.559C1603.27 280.132 1622.94 275.262 1640.23 265.33C1655.89 255.685 1668.02 241.265 1674.8 224.171V272.206H1764.38V9.1097H1674.8H1674.7ZM1661.53 198.1C1651.59 207.268 1638.41 211.947 1624.95 211.183C1611.77 211.852 1598.88 207.077 1589.14 198.1C1579.97 189.219 1575 176.804 1575.48 164.007C1575 151.306 1579.87 139.082 1589.04 130.201C1610.15 113.011 1640.42 113.011 1661.53 130.201C1670.69 138.796 1675.66 150.924 1675.28 163.53C1675.75 176.422 1670.79 189.028 1661.53 198.1ZM421.486 41.197C421.486 63.3525 401.527 81.306 376.889 81.306C352.251 81.306 332.292 63.3525 332.292 41.197C332.292 19.0415 352.251 1.08789 376.889 1.08789C401.527 1.08789 421.486 19.0415 421.486 41.197ZM421.486 108.905V273.448H332.196V108.905C360.75 120.938 392.933 120.938 421.486 108.905Z" fill="#E0E3FF"/>
</svg>